<svg width="24" height="23" viewBox="0 0 24 23" fill="none" xmlns="http://www.w3.org/2000/svg">
<path d="M5.5 10.5L8 13.5L11.5 9L16 15H2L5.5 10.5ZM18 16V2C18 0.89 17.1 0 16 0H2C1.46957 0 0.960859 0.210714 0.585786 0.585786C0.210714 0.960859 0 1.46957 0 2V16C0 16.5304 0.210714 17.0391 0.585786 17.4142C0.960859 17.7893 1.46957 18 2 18H16C16.5304 18 17.0391 17.7893 17.4142 17.4142C17.7893 17.0391 18 16.5304 18 16Z" fill="#06607C"/>
<path d="M24 15.1429C24 15.6951 23.5523 16.1429 23 16.1429H18.1429C17.5906 16.1429 17.1429 16.5906 17.1429 17.1429V22C17.1429 22.5523 16.6951 23 16.1429 23H15.8571C15.3049 23 14.8571 22.5523 14.8571 22V17.1429C14.8571 16.5906 14.4094 16.1429 13.8571 16.1429H9C8.44771 16.1429 8 15.6951 8 15.1429V14.8571C8 14.3049 8.44772 13.8571 9 13.8571H13.8571C14.4094 13.8571 14.8571 13.4094 14.8571 12.8571V8C14.8571 7.44771 15.3049 7 15.8571 7H16.1429C16.6951 7 17.1429 7.44772 17.1429 8V12.8571C17.1429 13.4094 17.5906 13.8571 18.1429 13.8571H23C23.5523 13.8571 24 14.3049 24 14.8571V15.1429Z" fill="#FF7A00"/>
</svg>
